<svg width="437" height="400" viewBox="0 0 437 400" fill="none" xmlns="http://www.w3.org/2000/svg">
<path d="M344.531 302.927C345.4 276.997 340.361 251.581 333.597 227.328C327.381 205.066 318.64 190.657 320.043 165.357C320.992 148.408 323.893 131.442 322.476 114.559C319.509 79.0332 292.013 62.1337 267.325 53.1361C201.828 29.4302 128.471 40.6025 68.9752 83.3494C53.6035 94.3889 38.8733 107.752 28.5274 125.731C18.1815 143.71 12.6343 166.934 16.9117 188.266C22.2584 214.827 40.9718 233.42 51.291 257.524C61.7438 282.01 62.9602 310.862 68.748 337.706C74.5358 364.549 87.7555 392.488 109.557 398.099C127.909 402.897 146.101 390.596 164.427 385.151C193.353 376.568 223.401 385.25 253.036 387.126C282.67 389.002 316.327 381.266 333.236 350.605C340.815 336.76 343.983 319.694 344.531 302.927Z" fill="#EDF6FF"/>
<path d="M238.247 366.259L236.82 307.845C236.82 265.747 207.839 244.674 165.729 244.674C119.504 244.674 116.127 267.542 115.354 321.687L109.693 366.259H238.247Z" fill="#00D3B5"/>
<g style="mix-blend-mode:multiply" opacity="0.4">
<path d="M204.033 366.258V306.797H203.486C188.698 332.116 167.044 352.731 141.029 366.258H204.033Z" fill="#0073AA"/>
</g>
<path d="M152.017 218.25L151.232 251.809C151.232 260.372 152.421 262.917 163.005 263.618C170.236 264.094 182.033 260.99 182.033 252.428L184.209 207.904L152.017 218.25Z" fill="url(#paint0_linear)"/>
<path d="M178.632 169.872C167.132 165.115 161.15 173.119 152.088 177.412C148.604 179.053 142.396 181.372 138.115 181.61C134.345 181.824 127.591 174.32 127.234 177.947C126.045 190.291 136.236 193.478 139.661 202.397C142.242 209.128 143.443 225.813 143.443 225.813C143.443 225.813 171.163 228.964 176.979 228.619C179.883 228.496 182.629 227.261 184.649 225.171C184.649 225.171 197.041 213.814 198.123 199.472C199.3 183.774 194.555 176.52 178.632 169.872Z" fill="#475269"/>
<path d="M180.19 189.304C176.622 192.99 170.438 195.345 164.647 198.247C157.071 202.052 149.341 204.454 143.336 204.454L141.433 218.725C140.779 234.981 147.724 240.428 159.01 241.998C165.741 242.343 180.713 235.707 182.283 224.421L184.661 207.261C186.837 197.45 184.732 194.715 180.19 189.304Z" fill="url(#paint1_linear)"/>
<path d="M154.776 207.879C154.705 208.228 154.532 208.547 154.279 208.797C154.026 209.047 153.705 209.216 153.356 209.284C153.007 209.351 152.645 209.313 152.318 209.174C151.99 209.036 151.711 208.804 151.516 208.507C151.321 208.209 151.218 207.861 151.221 207.505C151.224 207.15 151.332 206.803 151.532 206.509C151.732 206.216 152.015 205.988 152.345 205.855C152.675 205.722 153.037 205.69 153.385 205.763C153.849 205.86 154.256 206.137 154.517 206.534C154.778 206.931 154.871 207.414 154.776 207.879Z" fill="#475269"/>
<path d="M174.719 210.757C174.648 211.106 174.475 211.425 174.222 211.675C173.969 211.925 173.648 212.094 173.299 212.162C172.95 212.229 172.588 212.191 172.261 212.052C171.933 211.914 171.654 211.682 171.459 211.385C171.264 211.087 171.161 210.739 171.164 210.384C171.167 210.028 171.275 209.681 171.475 209.387C171.676 209.094 171.958 208.866 172.288 208.733C172.618 208.6 172.98 208.568 173.328 208.641C173.792 208.738 174.199 209.015 174.46 209.412C174.721 209.809 174.814 210.292 174.719 210.757Z" fill="#475269"/>
<path d="M158.998 227.216C156.547 227.03 154.187 226.21 152.148 224.837C152.069 225.112 152.025 225.396 152.017 225.682C151.851 230.522 156.12 234.708 162.946 231.211C163.714 230.836 164.392 230.3 164.933 229.639C165.475 228.978 165.868 228.209 166.086 227.382C166.177 226.965 166.205 226.536 166.169 226.11C163.914 227.09 161.444 227.471 158.998 227.216Z" fill="white"/>
<path d="M155.002 229.226C153.104 229.233 151.223 228.867 149.467 228.147C147.711 227.427 146.114 226.368 144.767 225.031C143.421 223.693 142.352 222.103 141.62 220.352C140.889 218.6 140.51 216.722 140.505 214.824H141.695C141.707 218.342 143.116 221.711 145.611 224.191C148.106 226.67 151.484 228.058 155.002 228.048V229.226Z" fill="#475269"/>
<path d="M157.583 228.203C157.585 228.644 157.456 229.075 157.214 229.442C156.971 229.809 156.624 230.096 156.218 230.266C155.812 230.436 155.364 230.482 154.932 230.398C154.5 230.313 154.103 230.102 153.79 229.792C153.478 229.481 153.265 229.085 153.178 228.653C153.092 228.222 153.135 227.774 153.303 227.367C153.471 226.96 153.756 226.612 154.122 226.367C154.488 226.122 154.918 225.991 155.359 225.991C155.65 225.99 155.939 226.046 156.209 226.156C156.479 226.267 156.724 226.429 156.93 226.635C157.137 226.841 157.301 227.085 157.413 227.354C157.525 227.623 157.583 227.912 157.583 228.203Z" fill="#475269"/>
<path d="M141.85 197.2C142.016 197.2 142.171 197.2 142.349 197.283L139.971 216.097H139.459C137.041 215.687 134.874 214.358 133.411 212.389C131.948 210.419 131.303 207.961 131.61 205.526C131.917 203.092 133.152 200.871 135.058 199.326C136.964 197.781 139.393 197.032 141.838 197.236L141.85 197.2Z" fill="url(#paint2_linear)"/>
<path d="M137.259 214.586C137.188 215.203 137.361 215.823 137.741 216.314C138.121 216.805 138.678 217.128 139.293 217.214C139.909 217.285 140.53 217.113 141.021 216.733C141.512 216.353 141.835 215.796 141.921 215.181L144.037 198.663C144.109 198.046 143.936 197.425 143.556 196.934C143.176 196.443 142.619 196.12 142.004 196.034C141.387 195.963 140.767 196.136 140.276 196.516C139.785 196.896 139.462 197.453 139.376 198.068L137.259 214.586Z" fill="#E49E00"/>
<path d="M191.202 203.027H189.68C190.179 190.457 186.623 180.825 178.453 176.222C170.676 171.846 163.505 171.394 152.207 175.652L150.233 175.961C159.426 170.538 170.45 169.48 178.62 174.082C187.23 178.934 191.713 189.97 191.202 203.027Z" fill="url(#paint3_linear)"/>
<path d="M189.489 202.04H188.978L186.599 220.842L187.099 220.937C189.604 221.254 192.134 220.562 194.13 219.015C196.126 217.467 197.425 215.189 197.742 212.684C198.059 210.178 197.368 207.649 195.82 205.653C194.272 203.657 191.995 202.357 189.489 202.04Z" fill="url(#paint4_linear)"/>
<path d="M189.489 220.033C189.4 220.648 189.075 221.204 188.581 221.582C188.088 221.96 187.466 222.129 186.849 222.055C186.236 221.966 185.682 221.642 185.305 221.151C184.927 220.66 184.756 220.042 184.827 219.427L186.968 202.908C187.054 202.293 187.377 201.736 187.868 201.356C188.359 200.977 188.979 200.804 189.596 200.875C190.213 200.961 190.772 201.285 191.153 201.779C191.533 202.273 191.704 202.896 191.63 203.515L189.489 220.033Z" fill="#E49E00"/>
<path d="M162.256 204.8C161.459 206.227 161.067 208.022 160.341 209.556C159.378 211.507 158.272 213.374 157.273 215.312C156.821 216.18 155.406 217.798 156.167 218.618C156.928 219.439 159.735 219.237 160.722 219.57" stroke="#56627E" stroke-miterlimit="10"/>
<path d="M150.245 173.975C146.202 176.496 140.946 180.457 135.975 177.971C132.3 176.152 127.876 172.739 126.461 179.006C125.581 182.883 127.222 187.616 129.006 191.052C133.953 200.566 144.989 205.704 155.418 204.74C165.598 203.789 179.131 200.388 180.213 189.281C180.618 185.285 177.3 177.816 174.767 174.618C168.809 167.256 157.178 169.635 150.245 173.975Z" fill="url(#paint5_linear)"/>
<path d="M170.938 203.432C172.507 204.098 176.348 203.907 177.918 203.765" stroke="#56627E" stroke-miterlimit="10"/>
<path d="M323.704 350.121L319.72 310.877C320.065 293.265 327.604 254.044 274.72 253.164C245.358 252.689 225.962 275.01 225.962 306.073V350.834L323.704 350.121Z" fill="#5153D8"/>
<path d="M323.704 350.121L320.302 316.668C311.217 332.449 292.951 341.44 276.302 350.216L323.704 350.121Z" fill="#4042C2"/>
<path d="M274.114 185.023C271.701 185.021 269.293 185.2 266.907 185.558C265.718 182.33 263.44 179.618 260.466 177.889C257.492 176.16 254.009 175.523 250.615 176.086C247.222 176.65 244.131 178.379 241.876 180.976C239.62 183.573 238.341 186.876 238.259 190.315C238.264 192.433 238.741 194.523 239.654 196.434C240.567 198.345 241.894 200.028 243.539 201.363C241.079 206.924 240.123 213.035 240.768 219.082C242.148 237.087 253.172 247.04 271.117 247.04C289.062 247.04 300.847 236.825 300.847 218.773C300.847 200.72 294.199 185.023 274.114 185.023Z" fill="url(#paint6_linear)"/>
<path d="M287.112 232.912L287.718 259.384C287.718 266.151 286.767 268.16 278.43 268.707C272.722 269.088 263.422 266.65 263.422 259.884L261.71 224.742L287.112 232.912Z" fill="url(#paint7_linear)"/>
<path d="M299.955 222.923C299.585 221.253 298.57 219.797 297.131 218.873C295.692 217.948 293.945 217.63 292.273 217.988C291.935 218.051 291.602 218.135 291.274 218.238C289.716 209.045 285.138 203.967 273.614 203.908C262.091 203.848 252.03 212.601 252.47 224.992C252.108 224.88 251.738 224.793 251.364 224.731C247.332 224.136 243.634 226.598 243.039 230.237C242.445 233.876 245.311 237.372 249.354 237.931C250.431 238.105 251.533 238.047 252.585 237.76C253.637 237.473 254.616 236.963 255.455 236.266C260.866 246.529 271.89 250.537 277.158 250.941C285.827 251.559 291.428 242.902 291.88 230.07C292.668 230.203 293.472 230.203 294.259 230.07C295.961 229.876 297.517 229.015 298.585 227.675C299.653 226.335 300.146 224.626 299.955 222.923Z" fill="url(#paint8_linear)"/>
<g style="mix-blend-mode:multiply">
<path d="M294.14 223.232C294.603 224.248 294.728 225.386 294.497 226.478C295.126 226.065 295.59 225.445 295.808 224.724C296.026 224.004 295.984 223.23 295.689 222.537C295.395 221.845 294.866 221.278 294.196 220.935C293.526 220.593 292.757 220.496 292.023 220.663H291.952C292.948 221.251 293.718 222.155 294.14 223.232Z" fill="#F0CAA4"/>
</g>
<g style="mix-blend-mode:multiply">
<path d="M248.414 230.689C248.47 229.688 248.841 228.731 249.473 227.953C248.806 228.025 248.186 228.327 247.719 228.808C247.251 229.288 246.966 229.917 246.913 230.585C246.859 231.253 247.041 231.919 247.425 232.467C247.81 233.016 248.375 233.413 249.021 233.59C248.515 232.712 248.302 231.696 248.414 230.689Z" fill="#F0CAA4"/>
</g>
<path d="M263.612 223.98C263.674 224.281 263.823 224.556 264.041 224.772C264.259 224.987 264.536 225.133 264.837 225.191C265.138 225.248 265.449 225.215 265.731 225.095C266.014 224.976 266.254 224.775 266.421 224.518C266.589 224.261 266.677 223.961 266.673 223.654C266.67 223.348 266.575 223.049 266.402 222.797C266.228 222.544 265.983 222.349 265.698 222.235C265.413 222.122 265.101 222.096 264.802 222.161C264.603 222.2 264.415 222.279 264.247 222.393C264.079 222.506 263.936 222.652 263.825 222.821C263.714 222.99 263.638 223.18 263.602 223.379C263.565 223.578 263.569 223.783 263.612 223.98Z" fill="#475269"/>
<path d="M282.581 223.148C282.666 223.546 282.906 223.894 283.246 224.116C283.587 224.339 284.001 224.419 284.4 224.337C284.802 224.254 285.155 224.014 285.38 223.67C285.605 223.327 285.685 222.908 285.601 222.506C285.518 222.104 285.278 221.751 284.934 221.526C284.591 221.301 284.172 221.221 283.77 221.305C283.57 221.346 283.38 221.426 283.211 221.541C283.042 221.657 282.898 221.805 282.787 221.976C282.677 222.148 282.601 222.34 282.566 222.541C282.53 222.743 282.535 222.949 282.581 223.148Z" fill="#475269"/>
<path d="M277.277 237.55C279.791 237.097 282.168 236.072 284.222 234.553C284.345 234.784 284.43 235.033 284.472 235.291C285.28 239.572 281.867 245.007 274.173 242.711C272.257 241.871 270.695 240.386 269.761 238.513C269.615 238.153 269.527 237.772 269.5 237.384C272.049 238.003 274.703 238.06 277.277 237.55Z" fill="white"/>
<path d="M262.828 220.771L261.996 220.129C262.354 219.678 262.798 219.303 263.302 219.024C263.806 218.746 264.36 218.569 264.932 218.505C265.505 218.441 266.084 218.49 266.637 218.651C267.19 218.811 267.706 219.079 268.156 219.439L267.513 220.259C266.823 219.708 265.943 219.452 265.065 219.548C264.187 219.644 263.383 220.084 262.828 220.771Z" fill="#475269"/>
<path d="M280.749 219.403L279.929 218.761C282.509 215.478 285.946 217.952 286.101 218.071L285.447 218.892C284.755 218.34 283.873 218.084 282.993 218.179C282.113 218.275 281.306 218.715 280.749 219.403Z" fill="#475269"/>
<path d="M277.051 223.648C277.146 226.847 279.976 226.122 281.474 227.608C283.175 229.285 280.119 231.176 278.751 230.795" stroke="#56627E" stroke-width="0.75" stroke-miterlimit="10"/>
<path d="M154.241 356.174C154.198 356.997 154.484 357.803 155.034 358.415C155.585 359.028 156.355 359.398 157.178 359.444H278.585C279.407 359.398 280.178 359.028 280.728 358.415C281.279 357.803 281.564 356.997 281.522 356.174C281.561 355.353 281.274 354.55 280.724 353.94C280.174 353.33 279.405 352.962 278.585 352.916H157.178C156.358 352.962 155.589 353.33 155.039 353.94C154.488 354.55 154.202 355.353 154.241 356.174Z" fill="#303030"/>
<path d="M193.913 356.09C193.916 356.979 194.271 357.83 194.899 358.458C195.527 359.086 196.378 359.44 197.267 359.444H280.512C280.952 359.444 281.388 359.357 281.795 359.188C282.202 359.02 282.572 358.773 282.883 358.461C283.194 358.15 283.441 357.78 283.61 357.373C283.778 356.967 283.865 356.53 283.865 356.09L299.099 296.154C299.099 295.713 299.012 295.277 298.844 294.87C298.675 294.463 298.428 294.094 298.117 293.782C297.805 293.471 297.436 293.224 297.029 293.055C296.622 292.887 296.186 292.8 295.745 292.8H212.501C211.611 292.8 210.758 293.153 210.129 293.782C209.5 294.411 209.147 295.264 209.147 296.154L193.913 356.09Z" fill="url(#paint9_linear)"/>
<path d="M257.263 320.378L251.84 310.103L245.929 320.378H257.263Z" fill="#616161"/>
<path d="M185.386 136.574C184.197 129.772 177.918 124.575 170.331 124.575C167.721 124.546 165.145 125.179 162.846 126.414C160.546 127.649 158.596 129.447 157.178 131.639C155.173 130.584 152.939 130.037 150.673 130.046C145.048 130.046 140.292 133.292 138.674 137.775C137.114 136.704 135.263 136.135 133.37 136.146C128.518 136.146 124.57 139.714 124.57 144.173C124.57 148.633 128.518 152.201 133.37 152.201H150.673C154.122 152.201 196.922 157.445 196.91 144.673C196.91 137.288 192.082 137.704 185.386 136.574Z" fill="white"/>
<path d="M230.089 148.8C230.7 145.788 232.351 143.087 234.754 141.172C237.157 139.256 240.157 138.247 243.229 138.323C245.505 138.297 247.75 138.848 249.755 139.925C251.76 141.003 253.459 142.571 254.693 144.483C256.442 143.562 258.39 143.085 260.366 143.091C262.591 143.016 264.786 143.622 266.656 144.83C268.527 146.037 269.984 147.787 270.831 149.846C272.192 148.912 273.806 148.414 275.457 148.419C276.436 148.32 277.425 148.428 278.361 148.734C279.296 149.041 280.156 149.541 280.886 150.201C281.616 150.861 282.2 151.667 282.599 152.566C282.999 153.466 283.205 154.439 283.205 155.423C283.205 156.408 282.999 157.381 282.599 158.281C282.2 159.18 281.616 159.986 280.886 160.646C280.156 161.306 279.296 161.806 278.361 162.112C277.425 162.419 276.436 162.527 275.457 162.428H260.366C257.357 162.428 220.04 167.006 220.04 155.863C220.04 149.418 224.25 149.787 230.089 148.8Z" fill="white"/>
<path d="M229.601 234.078C229.267 232.442 228.371 230.975 227.067 229.932C225.763 228.889 224.135 228.336 222.466 228.37C221.225 228.355 220 228.655 218.906 229.241C217.813 229.828 216.885 230.682 216.211 231.723C215.257 231.224 214.195 230.967 213.119 230.974C211.908 230.933 210.713 231.264 209.695 231.92C208.677 232.577 207.884 233.529 207.422 234.649C206.682 234.135 205.802 233.861 204.901 233.864C204.374 233.822 203.845 233.89 203.346 234.063C202.847 234.236 202.389 234.511 202.001 234.869C201.613 235.228 201.303 235.663 201.091 236.147C200.88 236.631 200.77 237.153 200.77 237.681C200.77 238.21 200.88 238.732 201.091 239.216C201.303 239.7 201.613 240.135 202.001 240.494C202.389 240.852 202.847 241.127 203.346 241.3C203.845 241.473 204.374 241.54 204.901 241.499H213.119C214.772 241.499 235.107 243.996 235.095 237.931C235.071 234.411 232.776 234.613 229.601 234.078Z" fill="white"/>
<path d="M321.123 246.398C320.925 245.428 320.393 244.558 319.619 243.941C318.845 243.324 317.879 242.998 316.89 243.021C316.154 243.012 315.428 243.19 314.779 243.537C314.131 243.884 313.58 244.39 313.179 245.007C312.614 244.712 311.985 244.561 311.348 244.567C310.631 244.548 309.926 244.746 309.324 245.134C308.721 245.522 308.25 246.083 307.97 246.743C307.53 246.439 307.007 246.277 306.472 246.279C306.156 246.247 305.836 246.281 305.534 246.379C305.232 246.478 304.954 246.639 304.718 246.852C304.482 247.065 304.294 247.325 304.164 247.616C304.035 247.906 303.969 248.221 303.969 248.538C303.969 248.856 304.035 249.171 304.164 249.461C304.294 249.752 304.482 250.012 304.718 250.225C304.954 250.438 305.232 250.599 305.534 250.697C305.836 250.796 306.156 250.83 306.472 250.798H311.348C312.323 250.798 324.37 252.285 324.37 248.681C324.37 246.6 323.002 246.719 321.123 246.398Z" fill="white"/>
<path d="M118.065 225.146C117.748 223.598 116.896 222.21 115.659 221.225C114.423 220.24 112.879 219.722 111.299 219.759C110.119 219.739 108.954 220.02 107.914 220.576C106.873 221.131 105.992 221.943 105.352 222.935C104.454 222.462 103.454 222.217 102.439 222.221C101.293 222.177 100.162 222.487 99.1982 223.108C98.2345 223.73 97.4851 224.632 97.0517 225.694C96.3521 225.212 95.5226 224.955 94.6733 224.956C93.7177 224.956 92.8012 225.336 92.1254 226.012C91.4497 226.687 91.07 227.604 91.07 228.56C91.07 229.515 91.4497 230.432 92.1254 231.107C92.8012 231.783 93.7177 232.163 94.6733 232.163H102.451C103.997 232.163 123.214 234.541 123.214 228.785C123.238 225.527 121.062 225.658 118.065 225.146Z" fill="white"/>
<path d="M204.699 95.2609C203.51 95.4512 202.321 95.6652 201.132 95.8793" stroke="#8296BE" stroke-width="0.5" stroke-miterlimit="10"/>
<path d="M194.079 97.342C104.46 117.559 43.9889 199.198 54.6799 286.427" stroke="#8296BE" stroke-width="0.5" stroke-miterlimit="10" stroke-dasharray="6.1 6.1"/>
<path d="M55.1078 290.019C55.2743 291.208 55.4646 292.397 55.6549 293.586" stroke="#8296BE" stroke-width="0.5" stroke-miterlimit="10"/>
<path d="M183.008 91.4555L179.964 123.065L236.677 86.5202L235.595 84.6294L183.008 91.4555Z" fill="url(#paint10_linear)"/>
<path d="M173.114 74.0333L235.595 84.6292L187.622 99.5776L173.114 74.0333Z" fill="#EDF7FF"/>
<path d="M207.113 133.887L236.677 86.5204L192.605 108.354L207.113 133.887Z" fill="white"/>
<path d="M280.131 113.384C280.131 117.208 278.997 120.945 276.872 124.124C274.747 127.303 271.726 129.78 268.193 131.241C264.66 132.703 260.773 133.083 257.023 132.335C253.273 131.586 249.83 129.742 247.129 127.036C244.428 124.33 242.59 120.883 241.848 117.132C241.107 113.381 241.495 109.495 242.963 105.964C244.431 102.434 246.913 99.4181 250.096 97.2989C253.279 95.1798 257.018 94.0524 260.842 94.0595C265.96 94.0721 270.864 96.1132 274.48 99.7356C278.096 103.358 280.128 108.266 280.131 113.384Z" fill="#FECA55"/>
<path d="M264.861 116.941C264.464 116.835 264.043 116.864 263.665 117.023C263.286 117.182 262.971 117.463 262.768 117.821C262.566 118.237 262.531 118.831 262.091 119.01C261.929 119.056 261.759 119.064 261.594 119.033C261.429 119.002 261.273 118.933 261.139 118.831C259.665 118.011 256.727 112.16 256.953 110.507C256.951 110.337 256.989 110.169 257.063 110.016C257.138 109.864 257.247 109.73 257.381 109.627C257.798 109.389 258.285 109.722 258.749 109.817C259.161 109.862 259.576 109.769 259.931 109.554C260.286 109.339 260.56 109.014 260.711 108.628C260.983 107.865 261.044 107.044 260.889 106.25C260.811 105.289 260.456 104.372 259.867 103.61C258.071 101.564 255.419 103.61 254.361 105.346C253.715 106.475 253.31 107.727 253.171 109.02C252.779 111.744 257.691 121.519 260.117 122.839C261.247 123.483 262.498 123.887 263.791 124.028C265.813 124.207 269.047 123.315 268.489 120.639C268.218 119.717 267.69 118.892 266.966 118.261C266.412 117.621 265.679 117.162 264.861 116.941Z" fill="white"/>
<path d="M343.159 142.616C341.201 147.288 337.901 151.276 333.677 154.073C329.453 156.871 324.494 158.352 319.428 158.332C314.362 158.311 309.415 156.788 305.214 153.956C301.013 151.124 297.747 147.109 295.827 142.421C293.908 137.732 293.422 132.579 294.431 127.614C295.44 122.65 297.899 118.095 301.496 114.528C305.094 110.96 309.668 108.54 314.641 107.572C319.614 106.605 324.763 107.133 329.435 109.092C332.538 110.391 335.355 112.289 337.725 114.677C340.094 117.065 341.97 119.897 343.244 123.01C344.519 126.123 345.167 129.457 345.152 132.821C345.138 136.185 344.46 139.514 343.159 142.616Z" fill="url(#paint11_linear)"/>
<path d="M333.526 129.011L312.37 120.14L320.207 131.14L333.526 129.011Z" fill="white"/>
<path d="M318.875 134.303L309.136 120.651L302.987 135.337L329.269 146.349L335.417 131.675L318.875 134.303Z" fill="white"/>
<path d="M371.855 182.24C371.857 186.065 370.725 189.805 368.602 192.986C366.478 196.168 363.459 198.648 359.926 200.113C356.393 201.579 352.505 201.963 348.753 201.218C345.001 200.474 341.555 198.633 338.849 195.929C336.144 193.225 334.301 189.78 333.554 186.029C332.807 182.277 333.189 178.389 334.652 174.855C336.115 171.321 338.594 168.3 341.774 166.175C344.954 164.05 348.693 162.915 352.518 162.915C355.057 162.914 357.571 163.412 359.917 164.383C362.263 165.353 364.395 166.777 366.19 168.571C367.986 170.366 369.411 172.497 370.382 174.842C371.354 177.187 371.855 179.701 371.855 182.24Z" fill="#00D3B5"/>
<path d="M342.077 181.847H347.405C347.425 180.305 347.674 178.774 348.142 177.305C346.817 176.942 345.543 176.414 344.348 175.735C342.956 177.476 342.16 179.619 342.077 181.847Z" fill="white"/>
<path d="M347.405 182.632H342.077C342.158 184.857 342.955 186.997 344.348 188.733C345.543 188.057 346.817 187.534 348.142 187.175C347.674 185.705 347.425 184.174 347.405 182.632Z" fill="white"/>
<path d="M352.138 182.632H348.19C348.221 184.109 348.461 185.575 348.903 186.985C349.967 186.754 351.05 186.622 352.138 186.592V182.632Z" fill="white"/>
<path d="M352.138 181.847V177.887C351.05 177.857 349.967 177.726 348.903 177.495C348.461 178.905 348.221 180.37 348.19 181.847H352.138Z" fill="white"/>
<path d="M352.138 187.388C351.138 187.414 350.143 187.53 349.165 187.733C349.839 189.553 350.848 191.23 352.138 192.68V187.388Z" fill="white"/>
<path d="M356.133 177.495C355.077 177.721 354.002 177.852 352.923 177.887V181.847H356.859C356.82 180.37 356.576 178.905 356.133 177.495Z" fill="white"/>
<path d="M352.923 177.09C353.914 177.064 354.901 176.949 355.872 176.746C355.206 174.927 354.205 173.249 352.923 171.798V177.09Z" fill="white"/>
<path d="M352.138 177.09V171.798C350.848 173.248 349.839 174.926 349.165 176.746C350.143 176.949 351.138 177.065 352.138 177.09Z" fill="white"/>
<path d="M348.392 176.555C349.007 174.868 349.895 173.293 351.02 171.893C348.659 172.233 346.488 173.375 344.872 175.128C345.983 175.743 347.165 176.222 348.392 176.555Z" fill="white"/>
<path d="M348.392 187.924C347.149 188.254 345.951 188.733 344.824 189.351C346.444 191.101 348.613 192.242 350.972 192.586C349.862 191.184 348.99 189.609 348.392 187.924Z" fill="white"/>
<path d="M352.923 187.388V192.68C354.207 191.23 355.207 189.552 355.872 187.733C354.901 187.53 353.914 187.414 352.923 187.388Z" fill="white"/>
<path d="M356.657 187.924C356.041 189.611 355.153 191.186 354.029 192.586C356.387 192.249 358.558 191.111 360.177 189.363C359.067 188.741 357.885 188.258 356.657 187.924Z" fill="white"/>
<path d="M356.657 176.555C357.898 176.221 359.095 175.742 360.225 175.128C358.604 173.374 356.429 172.232 354.065 171.893C355.178 173.295 356.054 174.87 356.657 176.555Z" fill="white"/>
<path d="M352.923 182.632V186.592C354.003 186.616 355.079 186.747 356.133 186.985C356.576 185.574 356.82 184.109 356.859 182.632H352.923Z" fill="white"/>
<path d="M362.972 182.632H357.656C357.615 184.173 357.363 185.702 356.907 187.175C358.234 187.536 359.512 188.059 360.712 188.733C362.102 186.995 362.895 184.856 362.972 182.632Z" fill="white"/>
<path d="M357.656 181.847H362.972C362.895 179.623 362.102 177.484 360.712 175.746C359.512 176.42 358.234 176.943 356.907 177.304C357.357 178.779 357.609 180.306 357.656 181.847Z" fill="white"/>
<path d="M64.2654 244.697C66.6438 242.449 62.7788 237.907 65.6924 237.003C68.606 236.099 68.6535 234.006 72.7206 231.188C76.7878 228.369 79.2256 227.929 79.8559 226.015C80.4862 224.1 79.4516 221.662 75.8959 222.554C72.3401 223.446 70.2471 224.064 68.2611 226.918C68.2611 226.918 66.5843 221.9 68.7487 218.237C70.913 214.574 73.6245 207.237 70.7585 205.251C67.8925 203.265 67.1908 205.501 66.2038 208.379C65.2167 211.256 63.1118 218.618 63.1118 218.618C63.1118 218.618 64.0156 204.644 63.421 202.373C62.8264 200.102 58.9496 200.363 58.4144 203.241C57.8793 206.119 58.129 218.035 58.129 218.035C58.129 218.035 55.7506 208.022 55.4771 205.762C55.2036 203.503 51.1602 204.074 51.1246 206.167C51.0889 208.26 52.6705 217.452 52.6705 217.452C52.6705 217.452 50.2207 211.292 48.8175 208.854C47.4142 206.416 44.9763 207.808 45.2498 210.043C45.5234 212.279 48.3061 217.821 48.2704 220.068C48.2348 222.316 47.7353 231.318 48.4964 233.423C49.3753 236.351 49.7493 239.408 49.6024 242.461C49.6024 246.184 59.675 249.109 64.2654 244.697Z" fill="url(#paint12_linear)"/>
<path d="M67.6665 238.953C63.7329 240.357 59.6573 241.326 55.5127 241.843C51.6954 242.438 51.2673 241.593 47.6045 241.843C47.8542 244.721 51.1721 318.785 51.1721 318.785C51.9821 323.306 54.5292 327.329 58.2683 329.996C62.0074 332.662 66.6416 333.759 71.1793 333.052C75.717 332.345 79.7977 329.89 82.5483 326.212C85.2989 322.535 86.5009 317.927 85.8971 313.374C85.8971 313.374 68.0946 240.333 67.6665 238.953Z" fill="#00D3B5"/>
<path d="M71.7571 322.745C74.3139 327.359 75.2296 332.58 76.4069 331.807L115.651 308.082C115.651 308.082 114.759 300.317 118.636 283.168C121.014 272.644 156.358 239.94 119.992 258.694L80.0816 289.53C78.6664 290.482 66.4056 313.148 71.7571 322.745Z" fill="#00D3B5"/>
<g style="mix-blend-mode:multiply" opacity="0.4">
<path d="M77.3109 331.949C77.3109 331.949 103.283 308.903 111.073 297.022C118.862 285.142 115.58 308.082 115.58 308.082L77.3109 331.949Z" fill="#0073AA"/>
</g>
<path d="M352.268 242.283C351.519 240.975 353.588 239.357 351.959 237.871C350.33 236.384 347.69 231.461 346.263 230.093C344.836 228.726 342.862 227.775 343.028 226.609C343.159 226.233 343.376 225.892 343.66 225.613C343.944 225.334 344.289 225.125 344.667 225C345.046 224.876 345.448 224.841 345.842 224.897C346.236 224.953 346.612 225.1 346.941 225.325C348.154 226.038 349.2 227.003 350.009 228.155C350.187 228.69 351.269 212.529 351.269 210.602C351.269 208.676 354.611 208.295 354.718 210.341C354.825 212.386 354.361 220.461 354.361 220.461C354.361 220.461 355.551 218.594 356.906 220.806C356.906 220.806 359.963 219.688 361.009 222.09C361.009 222.09 362.448 221.317 363.839 223.279C365.231 225.241 363.97 235.041 363.162 236.289C362.769 236.788 362.482 237.362 362.321 237.975C362.159 238.589 362.126 239.23 362.222 239.857C362.341 241.653 362.733 242.307 361.972 242.699C361.211 243.092 354.516 246.243 352.268 242.283Z" fill="#F0CAA4"/>
<path d="M351.353 239.94C355.221 240.476 359.141 240.516 363.019 240.059C363.126 242.366 370.939 300.899 370.939 300.899C370.891 302.732 370.483 304.538 369.738 306.214C368.992 307.89 367.924 309.402 366.593 310.665C365.263 311.928 363.697 312.916 361.985 313.574C360.273 314.231 358.448 314.545 356.615 314.497C354.782 314.45 352.975 314.042 351.3 313.296C349.624 312.55 348.112 311.482 346.849 310.152C345.586 308.822 344.598 307.256 343.94 305.544C343.283 303.832 342.969 302.007 343.016 300.173C343.016 300.173 351.222 241.07 351.353 239.94Z" fill="#4042C2"/>
<path d="M362.294 307.286C360.902 310.104 353.731 311.02 352.673 313.826C351.733 313.541 321.183 298.985 321.183 298.985C314.047 295.489 309.088 287.093 307.4 279.375C305.877 272.418 304.058 260.966 308.957 263.665L358.714 295.834C359.844 296.393 364.506 302.826 362.294 307.286Z" fill="#5153D8"/>
<path d="M89.564 142.139C94.9671 137.293 93.2557 134.038 91.3305 127.036C89.4052 120.034 80.0249 97.4504 75.0793 96.2758C70.1337 95.1013 69.787 95.5026 55.9104 100.907C42.0339 106.311 18.1641 119.117 18.1641 119.117C18.1641 119.117 13.8572 122.034 16.2163 129.355C18.5754 136.676 30.62 166.232 37.0839 167.678C43.5477 169.124 41.308 168.533 53.3181 163.247C60.474 159.975 67.4542 156.331 74.2303 152.332C76.4271 157.47 79.1669 162.359 82.4033 166.915C88.1885 174.337 93.5659 177.101 93.5659 177.101C93.5659 177.101 86.5306 148.651 86.6843 144.476C87.6825 143.746 88.6436 142.966 89.564 142.139Z" fill="url(#paint13_linear)"/>
<path d="M28.542 131.83L71.5275 111.081" stroke="#EDF6FF" stroke-miterlimit="10"/>
<path d="M34.9049 142.14L77.0517 121.588" stroke="#EDF6FF" stroke-miterlimit="10"/>
<path d="M40.5813 154.211L81.567 133.368" stroke="#EDF6FF" stroke-miterlimit="10"/>
<defs>
<linearGradient id="paint0_linear" x1="151.232" y1="235.779" x2="184.197" y2="235.779" gradientUnits="userSpaceOnUse">
<stop offset="0.02" stop-color="#F0CAA4"/>
<stop offset="0.35" stop-color="#F0CEA8"/>
<stop offset="0.65" stop-color="#F2D8B3"/>
<stop offset="0.94" stop-color="#F4EAC5"/>
<stop offset="1" stop-color="#F5EFCA"/>
</linearGradient>
<linearGradient id="paint1_linear" x1="149.056" y1="198.734" x2="180.749" y2="230.427" gradientUnits="userSpaceOnUse">
<stop offset="0.02" stop-color="#F0CAA4"/>
<stop offset="0.49" stop-color="#F3DEB8"/>
<stop offset="1" stop-color="#F5EFCA"/>
</linearGradient>
<linearGradient id="paint2_linear" x1="131.123" y1="206.607" x2="142.349" y2="206.607" gradientUnits="userSpaceOnUse">
<stop offset="0.01" stop-color="#FFCE0C"/>
<stop offset="0.34" stop-color="#FFC90B"/>
<stop offset="0.97" stop-color="#FFC50B"/>
</linearGradient>
<linearGradient id="paint3_linear" x1="17578.1" y1="7549.47" x2="18992.1" y2="7549.47" gradientUnits="userSpaceOnUse">
<stop offset="0.01" stop-color="#FFCE0C"/>
<stop offset="0.34" stop-color="#FFC90B"/>
<stop offset="0.97" stop-color="#FFC50B"/>
</linearGradient>
<linearGradient id="paint4_linear" x1="5296.16" y1="4986.76" x2="5402.17" y2="4986.76" gradientUnits="userSpaceOnUse">
<stop offset="0.01" stop-color="#FFCE0C"/>
<stop offset="0.34" stop-color="#FFC90B"/>
<stop offset="0.97" stop-color="#FFC50B"/>
</linearGradient>
<linearGradient id="paint5_linear" x1="126.199" y1="187.366" x2="180.225" y2="187.366" gradientUnits="userSpaceOnUse">
<stop stop-color="#697A9C"/>
<stop offset="0.34" stop-color="#677899"/>
<stop offset="0.58" stop-color="#617090"/>
<stop offset="0.79" stop-color="#566480"/>
<stop offset="0.99" stop-color="#475269"/>
</linearGradient>
<linearGradient id="paint6_linear" x1="238.259" y1="211.471" x2="300.883" y2="211.471" gradientUnits="userSpaceOnUse">
<stop stop-color="#697A9C"/>
<stop offset="0.3" stop-color="#5B6A88"/>
<stop offset="0.73" stop-color="#4C5871"/>
<stop offset="0.99" stop-color="#475269"/>
</linearGradient>
<linearGradient id="paint7_linear" x1="260.128" y1="259.384" x2="286.862" y2="232.662" gradientUnits="userSpaceOnUse">
<stop stop-color="#F5EFCA"/>
<stop offset="0.06" stop-color="#F4EAC5"/>
<stop offset="0.35" stop-color="#F2D8B3"/>
<stop offset="0.65" stop-color="#F0CEA8"/>
<stop offset="0.98" stop-color="#F0CAA4"/>
</linearGradient>
<linearGradient id="paint8_linear" x1="243.016" y1="227.442" x2="300.027" y2="227.442" gradientUnits="userSpaceOnUse">
<stop stop-color="#F5EFCA"/>
<stop offset="0.51" stop-color="#F3DEB8"/>
<stop offset="0.98" stop-color="#F0CAA4"/>
</linearGradient>
<linearGradient id="paint9_linear" x1="193.913" y1="326.122" x2="299.087" y2="326.122" gradientUnits="userSpaceOnUse">
<stop stop-color="#626262"/>
<stop offset="0.2" stop-color="#303030"/>
<stop offset="1" stop-color="#101010"/>
</linearGradient>
<linearGradient id="paint10_linear" x1="179.964" y1="103.847" x2="236.677" y2="103.847" gradientUnits="userSpaceOnUse">
<stop stop-color="#C6D6F6"/>
<stop offset="0.8" stop-color="#CDE0F5"/>
<stop offset="1" stop-color="#D0E4F5"/>
</linearGradient>
<linearGradient id="paint11_linear" x1="28258.4" y1="9633.55" x2="30466.2" y2="9633.55" gradientUnits="userSpaceOnUse">
<stop stop-color="#D0E4F5"/>
<stop offset="0.2" stop-color="#CDE0F5"/>
<stop offset="1" stop-color="#C6D6F6"/>
</linearGradient>
<linearGradient id="paint12_linear" x1="11764.1" y1="12297.5" x2="12782.7" y2="12297.5" gradientUnits="userSpaceOnUse">
<stop stop-color="#F5EFCA"/>
<stop offset="0.51" stop-color="#F3DEB8"/>
<stop offset="0.98" stop-color="#F0CAA4"/>
</linearGradient>
<linearGradient id="paint13_linear" x1="27525.3" y1="14279.6" x2="32356.1" y2="13695.2" gradientUnits="userSpaceOnUse">
<stop stop-color="#5153D8"/>
<stop offset="0.2" stop-color="#CDE0F5"/>
<stop offset="1" stop-color="#C6D6F6"/>
</linearGradient>
</defs>
</svg>
